<?xml version="1.0"?>
<svg xmlns="http://www.w3.org/2000/svg" xmlns:xlink="http://www.w3.org/1999/xlink" version="1.1" viewBox="0 0 225 225" width="52px" height="52px"><g fill="none" fill-rule="nonzero" stroke="none" stroke-width="1" stroke-linecap="butt" stroke-linejoin="miter" stroke-miterlimit="10" stroke-dasharray="" stroke-dashoffset="0" font-family="none" font-weight="none" font-size="none" text-anchor="none" style="mix-blend-mode: normal"><path d="M0,225.99231v-225.99231h225.99231v225.99231z" fill="none"/><g fill="#c4a98b"><g id="surface1"><path d="M112.5,10.27644c-56.45282,0 -102.22356,45.77074 -102.22356,102.22356c0,56.45283 45.77074,102.22356 102.22356,102.22356c56.45283,0 102.22356,-45.77073 102.22356,-102.22356c0,-56.45282 -45.77073,-102.22356 -102.22356,-102.22356zM133.79658,168.7162c-5.27344,2.06205 -9.46514,3.65084 -12.60893,4.73257c-3.14378,1.08173 -6.76082,1.6226 -10.91871,1.6226c-6.35517,0 -11.32437,-1.55499 -14.8738,-4.66497c-3.51562,-3.07617 -5.27344,-7.03125 -5.27344,-11.83143c0,-1.85923 0.13522,-3.75226 0.40565,-5.67909c0.23662,-1.96064 0.67608,-4.1241 1.25075,-6.5918l6.5918,-23.25721c0.57467,-2.23107 1.08173,-4.32692 1.48738,-6.32137c0.40565,-1.99443 0.57467,-3.81986 0.57467,-5.47626c0,-2.94096 -0.60848,-5.03681 -1.82542,-6.18615c-1.25075,-1.18315 -3.58323,-1.75781 -7.03125,-1.75781c-1.6902,0 -3.44801,0.27043 -5.23963,0.7775c-1.79162,0.54087 -3.3128,1.04793 -4.59736,1.52118l1.75781,-7.16647c4.29311,-1.75781 8.41722,-3.24519 12.37229,-4.49594c3.92127,-1.25075 7.67353,-1.89303 11.15535,-1.89303c6.32136,0 11.22296,1.55498 14.63717,4.59736c3.41421,3.04236 5.13822,7.03125 5.13822,11.89904c0,1.01412 -0.10141,2.80574 -0.33805,5.34104c-0.23662,2.53531 -0.67608,4.86779 -1.31835,7.03125l-6.558,23.18961c-0.54087,1.85923 -1.01412,3.98888 -1.45358,6.35517c-0.40565,2.36628 -0.60847,4.19171 -0.60847,5.40865c0,3.07617 0.67608,5.20583 2.06205,6.32137c1.35216,1.11553 3.75226,1.6564 7.16647,1.6564c1.58879,0 3.38041,-0.27043 5.40865,-0.8113c1.99444,-0.57467 3.44802,-1.04793 4.36073,-1.48738zM132.61343,74.57182c-3.04237,2.83954 -6.72702,4.25931 -11.02014,4.25931c-4.29311,0 -8.01157,-1.41977 -11.08774,-4.25931c-3.07617,-2.83954 -4.59736,-6.28756 -4.59736,-10.31025c0,-4.02268 1.55499,-7.5045 4.59736,-10.37785c3.07617,-2.87335 6.79463,-4.29312 11.08774,-4.29312c4.29312,0 7.97776,1.41977 11.02014,4.29312c3.07617,2.87335 4.59736,6.35517 4.59736,10.37785c0,4.02269 -1.52118,7.47071 -4.59736,10.31025z"/></g></g></g></svg>
